<svg xmlns="http://www.w3.org/2000/svg" viewBox="0 0 225.25 203.16"><defs><style>.cls-1{fill:#406325;}</style></defs><title>Asset 21</title><g id="Layer_2" data-name="Layer 2"><g id="Layer_1-2" data-name="Layer 1"><path class="cls-1" d="M129,70.88c-5.25,1-10.24,3.9-14.61,7.15-16.75,12.45-28.74,33.51-24.63,54,3,14.77,13.69,26.94,26,35.61,17,12,39.44,18.61,59,11.45,12.46-4.56,22.47-14.14,30.55-24.66,9.94-12.94,17.65-28,19.5-44.24,2.62-23-6.88-46.13-21.45-64.12-33-40.79-100.45-62.32-146.55-31.3C41.06,25.35,28.59,40.36,18.68,56.42,8.43,73,.34,91.68,0,111.22-.53,143.63,20.46,173,45.92,193c6.63,5.23,14.24,10.21,22.69,10.12a20.73,20.73,0,0,0,19.14-28c-5.28-14-23-18.06-33.62-28.54C46.8,139.36,43,129.05,42.4,118.79s1.78-20.53,5.4-30.15C52.2,77,58.68,65.72,68.48,58c10.78-8.48,24.68-12,38.34-13.27,14.4-1.33,29.44-.26,42.4,6.17,23.36,11.58,35.93,41.31,28,66.13-2.23,7-6,13.61-11.7,18.17s-13.55,6.77-20.55,4.68-12.62-8.95-12.19-16.25c.68-11.52,14.15-18.11,17.8-29.06,3.4-10.22-4.36-22.58-15.05-24A20.29,20.29,0,0,0,129,70.88Z"/></g></g></svg>