<svg xmlns="http://www.w3.org/2000/svg" viewBox="0 0 277.57 271.73"><defs><style>.cls-1{fill:#f26951;}.cls-2{fill:#7f3f98;}</style></defs><title>Asset 8</title><g id="Layer_2" data-name="Layer 2"><g id="Layer_1-2" data-name="Layer 1"><path class="cls-1" d="M104.48,267.84c-26.87-7.8-67.13-30.7-70.21-62.69-3.14-32.61,33.34-64.81,75.22-101.79,30-26.48,59.19-45,56.67-69.7-1.38-13.46-11.19-19.36-8-25.58,6.78-13.34,65-11.69,93.27,16.55,49.75,49.67,19.86,194.48-62.18,235.18C148.57,280,107.15,268.61,104.48,267.84Z"/><path class="cls-2" d="M74.32,240.12C59.56,237.34,44.31,233,31,226c-10.71-5.64-20.44-13.83-25.87-24.65-9.29-18.52-4.36-39.77,2.31-58.24C24.8,95,72.44,29.83,131.56,56.91c14.74,6.75,26.64,18.63,41.26,25.66a71.42,71.42,0,0,0,43,6c11.59-2,23.35-6.92,34.71-3.88,12.55,3.36,20.78,15.69,24.37,28.18,6.9,24,.2,51-15.74,70.27s-40.36,30.68-65.27,32.53c-16.68,1.25-34.57-1.31-49.23,6.76-8.13,4.48-14.41,11.87-22.69,16.08-9.79,5-21.33,5-32.26,3.87C84.53,241.82,79.4,241.08,74.32,240.12Z"/><ellipse class="cls-2" cx="131.73" cy="32.94" rx="18.28" ry="18.88"/><ellipse class="cls-2" cx="216.53" cy="248.97" rx="19.78" ry="19.18"/></g></g></svg>