<svg xmlns="http://www.w3.org/2000/svg" viewBox="0 0 319.94 340.33"><defs><style>.cls-1{fill:#e2e4e8;}.cls-2{fill:#00a7b5;}.cls-3{fill:#fff;}</style></defs><title>Asset 16</title><g id="Layer_2" data-name="Layer 2"><g id="Layer_1-2" data-name="Layer 1"><path class="cls-1" d="M71.66,331.21C25.28,308.33,17.7,242.47,13.51,206c-6.39-55.53-1.3-170.51,66.66-199,81.61-34.16,243.83,60.61,239.7,170C315.74,286.24,147.34,368.54,71.66,331.21Z"/><path class="cls-2" d="M153.27,329.89c-83.48,3.05-163.59-105.53-152.18-195,1.36-10.67,4.09-30.3,17.79-49.41,52.66-73.52,203.35-50,269.44-.66,5.4,4,10.19,8.2,14.5,14.49,29.53,43.21-7.63,122.69-48.1,168C233.14,291.48,200.37,328.17,153.27,329.89Z"/><path class="cls-3" d="M142.8,280.43c-21.11-2.32-41.77-9-59.53-20.52-21.59-14.05-38.62-35.64-45.17-60.56-14.92-56.79,30.56-108,83.4-121.25,28-7,57.69-5,85.48,2.68,11.59,3.19,23.39,7.65,31.49,16.52,21,23,25,65.89,22.62,95.62-1.8,23-10.39,46.1-26.92,62.22-20.1,19.59-49.61,26.86-77.67,26.2C151.93,281.24,147.35,280.94,142.8,280.43Z"/></g></g></svg>