<svg xmlns="http://www.w3.org/2000/svg" viewBox="0 0 328.85 130.4"><defs><style>.cls-1{fill:#69539c;}</style></defs><title>Asset 19</title><g id="Layer_2" data-name="Layer 2"><g id="Layer_1-2" data-name="Layer 1"><path class="cls-1" d="M7.94,19.43C28,35.62,54.75,36.11,77.3,24.75a82.39,82.39,0,0,0,8.35-4.93c1.91-1.27,4.87-4.1,7.31-4.11,1.6,0,2.71,1.29,3.83,2.3a43.67,43.67,0,0,0,7.8,5.94,36.56,36.56,0,0,0,31.88,1.59c5.34-2.31,9.34-6.34,14.21-9.39,1.81-1.12,4.59-2.77,6.88-2.17s3.62,4,4.93,5.83A31.37,31.37,0,0,0,191,32.91c12-1.32,19.83-9.9,30.45-14.34,1.33-.56,4.19-2,5.59-1.45,1.09.41,2.47,3.33,3.25,4.43a32.1,32.1,0,0,0,12.56,10.54c12.23,5.66,24.45,3,35.24-4.39C283,24.36,287.88,20.45,294,20a19.93,19.93,0,0,1,15.75,6c6.37,6.39,16.27-3.51,9.9-9.9a34.22,34.22,0,0,0-31.51-9.28c-5.38,1.17-10.14,4.07-14.62,7.13s-8.92,6.66-14.41,7.33a19.26,19.26,0,0,1-13.71-3.79c-3.91-3-5.63-7.87-9.44-11-9.57-7.85-22.45,0-31.13,5.55s-18.36,10.75-27.71,3.3c-4-3.22-5.69-8.4-9.75-11.64-4.82-3.85-11.17-4.46-17-2.73s-9.93,5.59-14.66,9-10.13,5.2-16.07,4.52a21.93,21.93,0,0,1-12-5.38c-4.46-3.9-8.81-7.68-15.19-7.28-7,.44-12.22,5.2-18,8.6a62.23,62.23,0,0,1-19.31,7.49c-12.8,2.61-27.06,0-37.34-8.29-3-2.39-7-2.84-9.9,0C5.46,12,5,17.06,7.94,19.43Z"/><path class="cls-1" d="M5,44.13C23.33,59.36,48.53,64.8,71.12,56.26a66.69,66.69,0,0,0,14.93-7.72c2.12-1.49,4.15-3.12,6.14-4.8s2.34-2.79,4.42-1c3.83,3.38,6.76,7.32,11.24,10a34.44,34.44,0,0,0,17.38,4.88c5.75,0,11.13-1.77,15.19-6,1.52-1.57,4.74-8,7.18-8.09,3.19-.14,7.92,6.8,9.94,8.72,4.4,4.18,9.49,7.93,15.35,9.75,11.83,3.69,21.72-2.59,31.34-8.63,3.93-2.47,9.34-5.94,14.24-4.7,2.46.62,4.49,2.45,6.53,3.86a45.85,45.85,0,0,0,7.77,4.41,47,47,0,0,0,37.2.39c6.11-2.59,11-5.87,17.94-5s13.58,4.48,19.73,7.74c8,4.22,15-7.86,7.07-12.09-11-5.86-23.41-11.73-36.25-9.17-5.16,1-9.42,3.88-14.2,5.83a33.14,33.14,0,0,1-16.6,2.14,32.79,32.79,0,0,1-13-4.65c-5.64-3.48-10.18-7.42-17.14-7.68-12.22-.45-20.35,8.41-30.68,13.07-11.17,5-18.07-4.55-25.42-11.39-8.46-7.87-19.29-8.86-26.92.6-2.84,3.52-4.29,6.75-9.22,6.81a20.57,20.57,0,0,1-14.58-6.39c-3.32-3.36-6.23-7.17-10.84-8.84-6.36-2.31-11.61.42-16.45,4.45-19.8,16.5-48.1,18.26-68.44,1.33C8,28.51-1.92,38.36,5,44.13Z"/><path class="cls-1" d="M3.61,83.64c21.16,9.93,45.83,11.08,67.56,2.11,5.29-2.19,10-5.48,15.28-7.67,5.7-2.37,11.57-1.51,17.19.67a76,76,0,0,1,14,7.75C123,90,128,94.11,134.87,92.9c4.73-.83,8-4,12.13-6.08,5-2.61,9.76-1.26,14.23,1.63,8.59,5.54,17.22,12.28,27.77,6.78,9.74-5.09,15.65-16.67,27.82-17,5.71-.13,9.27,3.5,13.57,6.71a37,37,0,0,0,15.55,6.73c12.71,2.32,25.34-.68,37.73-3.39,11.46-2.51,24.3-4.8,34.83,1.78,7.66,4.78,14.7-7.33,7.06-12.09-20.8-13-43.37-1.26-65.28.4a39.73,39.73,0,0,1-14.81-1.19c-5.86-1.82-9.6-6.35-14.75-9.35-10.63-6.21-23.67-3.61-33.44,3-4.37,3-8.05,6.62-12.05,10-4.4,3.74-7.07,2.25-11.47-.72-9.14-6.14-18.19-11.23-29.53-7.32a30.48,30.48,0,0,0-6.57,3.32c-1.45.94-3.58,3-5.39,3s-4.76-2.86-6.25-3.87c-2.71-1.81-5.45-3.58-8.28-5.18-10.09-5.69-22.09-9.76-33.6-6.07-6.19,2-11.46,6-17.4,8.5a67.88,67.88,0,0,1-19,5,69.83,69.83,0,0,1-37-6c-8.11-3.8-15.23,8.26-7.07,12.09Z"/><path class="cls-1" d="M7.69,129.57c12.6,3,23.51-2.72,34.2-8.74,4.11-2.32,10-6.79,15.07-5.67,4.63,1,8.4,5.9,12,8.66a30.06,30.06,0,0,0,31.51,3c4.87-2.38,8-6.09,11.48-10.12,4.29-5,9.13-3.83,14.55-.82,5.24,2.92,10.11,6.17,15.76,8.31a57.27,57.27,0,0,0,18.09,3.54,58,58,0,0,0,16.85-1.9,55.25,55.25,0,0,0,7.13-2.49c3.32-1.39,6.56-3.82,10-4.73,7.75-2,16.47,5.46,23.16,8.39,9.74,4.27,19.44,4.24,28.43-1.88,4.44-3,8.4-7.31,13.38-9.48,5.89-2.58,12.15.62,17.56,3,13.73,6,27.43,8.22,42.26,5.31,8.83-1.73,5.09-15.23-3.72-13.5-13,2.55-24.14-.85-36-5.87-11.44-4.84-22.12-5.23-32.44,2.3-7,5.1-12.63,11.53-21.86,8.2-8.89-3.21-16.23-9.57-25.92-10.63-5.32-.58-10,.9-14.68,3.27-5.39,2.71-10.53,5-16.61,5.75-11.66,1.48-21.65-2.08-31.48-8-10.62-6.36-23.85-10-33.44.24-3.37,3.59-5.5,7.5-10.35,9.29A15.89,15.89,0,0,1,79,113.83c-4.7-2.84-8.19-7.32-13-10a22.59,22.59,0,0,0-19.22-1.07c-11,4.09-22.9,16.3-35.37,13.3-8.75-2.1-12.49,11.39-3.72,13.5Z"/></g></g></svg>