<svg xmlns="http://www.w3.org/2000/svg" viewBox="0 0 247.25 286.32"><defs><style>.cls-1{fill:#9669a4;}.cls-2{fill:#231f20;}</style></defs><title>Asset 3</title><g id="Layer_2" data-name="Layer 2"><g id="Layer_1-2" data-name="Layer 1"><path class="cls-1" d="M70.92,226.13C55,211.34,40.37,199,28,182.37S5.65,145.13,3.12,121.62,5.61,72.2,21.9,59.42C38.34,46.64,66.21,47.28,90.32,44.61s44.46-8.68,66.61-8c22,.78,45.79,8.2,56.16,24.79s7.17,42.2,10.9,67.06,14.54,48.69,11.95,71.74-18.45,45.17-39.71,57.34-47.94,14.55-69.92,7.28C104.17,257.52,86.87,240.77,70.92,226.13Z"/><path class="cls-2" d="M167.15,286.32c-22.65,0-51.14-8.75-68.27-15.8C86,265.2,55.73,252.76,31.71,221.9,19.2,205.83,8.66,185,3.5,166.28c-5.71-20.74-4.4-36.52,3.68-44.45,3.2-3.14,6.54-4.14,9.49-5,3.25-1,6.06-1.8,8.65-5.33,4.46-6.06,3-13.21,1.22-22.28-1.42-7.1-3-15.16-2.31-24.68A78.18,78.18,0,0,1,41.64,23.85c29.54-35,101-28.31,146.57-.42,10.25,6.27,37.48,22.91,50.93,56,7.66,18.86,10,41.42,6.58,63.55-3.27,21.2-11.48,40.71-23.12,54.94-1.54,1.88-3,3.57-4.52,5.19-4,4.47-7.81,8.69-11.46,16.3-6.74,14-6.11,24.9-5.55,34.49.47,8.18.88,15.25-3.82,21.6C191.39,283.39,180.25,286.32,167.15,286.32Zm-66.75-19.5c30.27,12.45,80.19,24.42,93.63,6.3,3.85-5.17,3.49-11.27,3-19-.55-9.58-1.24-21.5,5.94-36.46,3.91-8.12,7.89-12.54,12.1-17.23,1.43-1.59,2.91-3.24,4.39-5,23.78-29.07,30.63-78.28,15.93-114.45-13-31.88-39.36-48-49.3-54.11A160.91,160.91,0,0,0,108.46,4.1c-28.36-.69-51,7.23-63.76,22.33C30,43.88,28.24,64.61,28.22,64.82c-.68,9,.87,16.74,2.24,23.6,1.93,9.63,3.59,18-1.92,25.43-3.38,4.61-7.29,5.77-10.73,6.8-2.74.81-5.34,1.59-7.83,4C-5.37,139.75,11,188.84,34.86,219.44,58.24,249.47,87.78,261.63,100.4,266.82Z"/></g></g></svg>