<svg xmlns="http://www.w3.org/2000/svg" viewBox="0 0 308.76 144.84"><defs><style>.cls-1{fill:#f04e23;}</style></defs><title>Asset 20</title><g id="Layer_2" data-name="Layer 2"><g id="Layer_1-2" data-name="Layer 1"><path class="cls-1" d="M22.62,60.76c12.9-15.25,29-29.22,47.43-37.42,20.49-9.13,39.15.94,56.21,12.44C135,41.66,143.62,48,153.33,52.16c11,4.72,18.66-.5,27.06-7.27A144.43,144.43,0,0,1,232.32,18.4a149.87,149.87,0,0,1,16-3.51c2.62-.42,5.82-1.21,8.48-.86s3.92,1.82,5.58,3.7c8.58,9.72,16.59,20,24.86,30,5.76,6.95,15.62-3,9.9-9.89Q285.44,23.74,273.79,9.69c-3.28-3.94-6.83-7.59-12-9-5.82-1.58-12.25-.17-18,.81a157.67,157.67,0,0,0-58,22.38c-4.44,2.83-8.72,5.9-12.87,9.15-3.08,2.41-7.3,7.47-11.54,7.12-4.48-.36-9.71-4.47-13.44-6.77-5.22-3.22-10.23-6.76-15.32-10.17C114.54,11.08,93.62.85,71.5,7.87c-22.81,7.24-43.56,25-58.77,43-5.79,6.84,4.07,16.79,9.89,9.9Z"/><path class="cls-1" d="M14.9,99.77,47.05,75.42c10-7.58,19.82-16.14,30.83-22.27,8.81-4.91,18.52-6.6,26.91,0,7.36,5.77,12.34,14.23,18.3,21.31,7.17,8.5,16.76,16.25,28.49,12.29,11.25-3.79,22.64-10.81,31.95-18.06,8.92-6.95,16.79-14.66,28.16-17.22a109.6,109.6,0,0,1,16.27-2c5.26-.37,10.68-.57,15.33,2.33,7,4.37,11.08,12.52,15.73,19.08C264.56,78.64,271,85.6,280.43,88.3c8.68,2.46,12.39-11,3.72-13.5-7.21-2-11.54-8.74-15.53-14.63-4.69-6.92-9.32-14-16.15-19C242.81,34,231,35,219.68,36.21c-12.25,1.32-22.86,4.46-32.79,12-4.45,3.35-8.6,7.09-13,10.44A116.88,116.88,0,0,1,156.48,69c-4.09,2.08-9.64,6.35-14.27,4.11-4.42-2.14-7.84-6.84-10.87-10.59-6.23-7.72-11.75-16.07-20-21.87a33.85,33.85,0,0,0-30.27-4.2c-13.33,4.38-24.27,14.1-35.26,22.43l-38,28.77c-3,2.3-4.54,6-2.51,9.58,1.7,3,6.57,4.79,9.57,2.51Z"/><path class="cls-1" d="M10.65,144.08c21.63-10.44,40.48-25.44,59.06-40.47,7.45-6,17.68-17.1,28.32-15.52,9.77,1.45,16.43,11.43,22.18,18.44,7,8.58,15.35,16.51,26.76,18.26a24.94,24.94,0,0,0,15-2c5.26-2.58,8.56-7.21,12.52-11.31,7.58-7.84,18.2-12.13,28.12-16.17,9.7-4,21.44-8.67,32-5.47,5.74,1.74,9.92,6,14.24,9.88a110,110,0,0,0,14.83,11.49A99,99,0,0,0,300,125.1c8.81,1.5,12.6-12,3.72-13.5a88.52,88.52,0,0,1-32.33-12.11C261.92,93.6,254.86,84.23,245,79.06c-11.08-5.81-23.73-4.79-35.35-1.23a157.21,157.21,0,0,0-31.83,13.61,61.75,61.75,0,0,0-12.22,9c-3.71,3.59-7,9.75-12.57,10.64-10.81,1.73-19-9.65-24.85-16.85-6.76-8.32-14.65-16.88-25.53-19.46C91,72,80.44,77.48,71.4,84.43c-22,16.91-42.59,35.39-67.82,47.56-8.11,3.91-1,16,7.07,12.09Z"/></g></g></svg>