<svg xmlns="http://www.w3.org/2000/svg" viewBox="0 0 317.46 287.25"><defs><style>.cls-1{fill:#f5ba3d;}.cls-2{fill:#231f20;}</style></defs><title>Asset 24</title><g id="Layer_2" data-name="Layer 2"><g id="Layer_1-2" data-name="Layer 1"><path class="cls-1" d="M93.44,244c-45.27,1.56-63.4,14.92-79.06,1.32-21.77-18.92-18.58-72.4,7.91-98.16C44,126,64.19,140.33,88.83,121.45c41.81-32,13.5-96.1,46.77-115.94C166.2-12.75,231.2,17,245,56.89c8.59,25-7.57,40.07,4.61,61.27,16.34,28.43,54.69,17.42,65.22,38.87,13.53,27.54-26,94.08-80.37,108.7C187.61,278.3,171.22,241.3,93.44,244Z"/><path class="cls-2" d="M239.35,287.25c-22.79,0-46.47-13.12-63.63-35.34L173.49,249c-5.06-6.72-10.3-13.67-18-16.09s-17.43.36-25.9,7.49a110.65,110.65,0,0,0-11.4,11.72c-2.84,3.22-5.77,6.55-9,9.57a71,71,0,0,1-35.57,18,64.69,64.69,0,0,1-19.85.58C33.61,277.69,15,264.52,6.41,246.73c-8.93-18.51-6.79-41.59,5.33-57.45,5.38-7,12.43-12.56,19.25-17.89,5.93-4.65,12.07-9.46,17-15.19,14.15-16.54,17.55-39.31,20.83-61.34l.62-4.16C72.25,72,76.39,50.76,89.84,35c12.92-15.15,35.35-21.88,61.52-18.47,19,2.47,36.85,9.93,51.85,16.9,13.69,6.36,28.17,14.86,31.72,29.64,1.14,4.75.93,9.78.72,14.66-.35,8.49-.69,16.51,5.83,22.59,6,5.63,13.74,5.42,21.91,5.19,8.92-.25,18.15-.5,25.41,7.13,5.77,6.06,9,13.75,11.19,19.78,9.48,26.2,19.14,60.66,9.65,94.89-8.09,29.14-34.34,59.07-68.86,59.91Zm-89.61-58a22.29,22.29,0,0,1,6.64,1c8.51,2.69,14,10,19.35,17.07.74,1,1.47,1.95,2.2,2.9,17,22,40.45,34.78,62.78,34.23,33.16-.8,58.42-29.72,66.23-57.86,9.29-33.47-.24-67.38-9.58-93.19-3.1-8.57-6.36-14.37-10.59-18.8-6.39-6.73-14.61-6.5-23.3-6.26-8.38.23-17,.47-23.9-5.94-7.46-7-7.08-16-6.72-24.76.2-4.68.4-9.52-.65-13.89C228.94,50.11,215.12,42.06,202,36c-14.81-6.88-32.45-14.24-51-16.66-11.93-1.55-41.56-2.95-59,17.52C79,52,75,72.82,72.19,91.12l-.62,4.16c-3.34,22.41-6.8,45.59-21.47,62.74C45,164,38.76,168.86,32.72,173.59,26,178.82,19.13,184.23,14,191c-11.5,15-13.52,37-5,54.54,8.17,17,26,29.51,45.27,32a61.68,61.68,0,0,0,19-.56l.25,1.38L73.2,277a68,68,0,0,0,34.15-17.31c3.09-2.93,6-6.21,8.77-9.38a113.22,113.22,0,0,1,11.7-12C134.79,232.38,142.6,229.24,149.74,229.24Z"/></g></g></svg>