<?xml version="1.0" encoding="utf-8"?>
<!-- Generator: Adobe Illustrator 27.5.0, SVG Export Plug-In . SVG Version: 6.00 Build 0)  -->
<svg version="1.1" xmlns="http://www.w3.org/2000/svg" xmlns:xlink="http://www.w3.org/1999/xlink" x="0px" y="0px"
	 viewBox="0 0 750 500" style="enable-background:new 0 0 750 500;" xml:space="preserve">
<g id="BACKGROUND">
	<rect style="fill:#FBEEE6;" width="750" height="500"/>
</g>
<g id="OBJECTS">
	<g>
		<defs>
			<rect id="SVGID_1_" width="750" height="500"/>
		</defs>
		<clipPath id="SVGID_00000096742759131374051710000004022691353883271050_">
			<use xlink:href="#SVGID_1_"  style="overflow:visible;"/>
		</clipPath>
		<path style="clip-path:url(#SVGID_00000096742759131374051710000004022691353883271050_);fill:#FFE3D4;" d="M334.357,130.755
			c-5.6,0.368-11.387,1.83-17.348,4.628c-38.468,18.055-82.978,75.145-58.648,118.632c10.341,18.483,26.97,35.703,41.08,51.397
			c21.146,23.519,44.262,35.357,76.651,29.442c25.695-4.693,55.781-14.116,73.135-34.901c9.418-11.28,14.493-26.912,10.47-41.046
			c-3.313-11.641-12.082-20.762-19.825-30.065C413.454,197.1,384.359,127.472,334.357,130.755z"/>
		<path style="clip-path:url(#SVGID_00000096742759131374051710000004022691353883271050_);fill:#FFE3D4;" d="M45.521,368.029
			c-1.091,5.505-1.172,11.473-0.009,17.955c7.508,41.826,51.166,99.569,99.462,87.295c20.526-5.217,41.457-16.835,60.262-26.413
			c28.182-14.355,45.588-33.629,48.238-66.447c2.102-26.035,0.768-57.534-14.83-79.667c-8.465-12.012-22.256-20.951-36.95-20.715
			c-12.101,0.195-23.178,6.311-34.165,11.388C130.042,308.749,55.262,318.875,45.521,368.029z"/>
		<path style="clip-path:url(#SVGID_00000096742759131374051710000004022691353883271050_);fill:#FFE3D4;" d="M508.016,337.757
			c-1.091,5.505-1.172,11.473-0.009,17.955c7.508,41.826,51.166,99.569,99.462,87.295c20.526-5.217,41.457-16.834,60.262-26.413
			c28.182-14.354,45.588-33.629,48.238-66.447c2.102-26.035,0.768-57.534-14.83-79.667c-8.466-12.012-22.256-20.951-36.95-20.715
			c-12.101,0.195-23.178,6.311-34.165,11.388C592.538,278.476,517.758,288.603,508.016,337.757z"/>
		<path style="clip-path:url(#SVGID_00000096742759131374051710000004022691353883271050_);fill:#FFE3D4;" d="M419.271-41.811
			c-4.207,3.714-7.893,8.41-10.9,14.268c-19.406,37.804-19.732,110.194,26.107,129.736c19.482,8.306,43.169,11.768,63.93,15.563
			c31.112,5.687,56.642,0.924,78.659-23.557c17.466-19.421,35.515-45.271,36.543-72.329c0.558-14.684-4.982-30.158-16.806-38.884
			c-9.738-7.187-22.254-9.045-34.068-11.674C522.426-37.659,456.836-74.975,419.271-41.811z"/>
		<path style="clip-path:url(#SVGID_00000096742759131374051710000004022691353883271050_);fill:#FFE3D4;" d="M150.813,18.508
			c-2.445-5.051-5.975-9.865-10.808-14.338C108.817-24.694,39.186-44.489,8.029-5.6C-5.214,10.928-14.923,32.81-24.165,51.783
			c-13.85,28.434-16.133,54.304,1.52,82.097c14.004,22.049,34.043,46.388,59.826,54.659c13.993,4.489,30.386,3.318,41.972-5.721
			c9.542-7.445,14.7-18.999,20.412-29.669C119.053,116.739,172.645,63.612,150.813,18.508z"/>
		<path style="clip-path:url(#SVGID_00000096742759131374051710000004022691353883271050_);fill:#FFE3D4;" d="M769.409,103.074
			c-1.358-2.806-3.319-5.48-6.004-7.965c-17.325-16.034-56.006-27.031-73.315-5.427c-7.356,9.182-12.75,21.337-17.884,31.877
			c-7.694,15.796-8.962,30.167,0.844,45.606c7.78,12.248,18.911,25.769,33.234,30.364c7.773,2.494,16.88,1.843,23.316-3.178
			c5.301-4.136,8.166-10.554,11.339-16.482C751.767,157.643,781.538,128.13,769.409,103.074z"/>
		<path style="clip-path:url(#SVGID_00000096742759131374051710000004022691353883271050_);fill:#FFE3D4;" d="M356.527,489.889
			c-1.358-2.806-3.319-5.48-6.004-7.965c-17.325-16.034-56.006-27.031-73.315-5.427c-7.356,9.182-12.75,21.337-17.884,31.877
			c-7.694,15.796-8.962,30.167,0.844,45.606c7.78,12.248,18.911,25.769,33.234,30.364c7.773,2.494,16.88,1.843,23.316-3.178
			c5.301-4.136,8.166-10.554,11.339-16.482C338.884,544.458,368.655,514.945,356.527,489.889z"/>
		<path style="clip-path:url(#SVGID_00000096742759131374051710000004022691353883271050_);fill:#FFE3D4;" d="M29.854,304.845
			c1.918-1.251,3.685-2.928,5.246-5.116c10.073-14.115,14.489-43.325-2.862-53.928c-7.375-4.507-16.734-7.307-24.891-10.068
			c-12.225-4.137-22.815-3.726-33.154,4.856c-8.202,6.808-17.02,16.177-19.036,27.041c-1.094,5.896,0.227,12.471,4.484,16.695
			c3.507,3.478,8.45,4.969,13.065,6.73C-11.551,297.063,12.723,316.013,29.854,304.845z"/>
		<path style="clip-path:url(#SVGID_00000096742759131374051710000004022691353883271050_);fill:#FFE3D4;" d="M726.498,488.368
			c-0.848-2.127-2.145-4.189-3.982-6.151c-11.853-12.658-39.619-22.744-53.435-7.823c-5.872,6.342-10.461,14.965-14.776,22.419
			c-6.466,11.17-8.149,21.634-1.774,33.461c5.058,9.383,12.505,19.874,22.759,23.992c5.565,2.235,12.271,2.236,17.251-1.106
			c4.101-2.752,6.537-7.305,9.173-11.482C710.708,527.427,734.07,507.363,726.498,488.368z"/>
		<path style="clip-path:url(#SVGID_00000096742759131374051710000004022691353883271050_);fill:#FFA188;" d="M131.63,76.645
			c-6.497,3.276-12.362,7.821-18.858,12.88c-14.199,11.059-26.498,24.337-26.498,43.423c1.189,26.233,23.709,40.173,42.43,54.999
			c39.59,31.354,99.302,48.526,148.737,31.344c24.697-8.584,41.647-33.445,38.053-60.386c-3.311-24.816-41.893-42.678-61.023-54.285
			c-18.42-11.176-38.505-20.977-59.168-27.191C175.925,71.6,150.487,67.138,131.63,76.645z"/>
		<g style="clip-path:url(#SVGID_00000096742759131374051710000004022691353883271050_);">
			<path style="fill:#C48E6A;" d="M133.527,44.283c-5.54,2.825-10.579,6.52-15.484,10.337c-4.894,3.841-9.778,7.715-14.046,12.222
				c-4.307,4.448-8.079,9.431-10.779,14.95c-1.33,2.768-2.34,5.668-3.085,8.627l-0.435,2.247c-0.068,0.375-0.151,0.747-0.207,1.124
				l-0.121,1.137c-0.074,0.758-0.178,1.515-0.229,2.272l-0.056,2.271c0.167,6.052,1.726,12.07,4.363,17.517
				c2.646,5.467,6.418,10.344,10.665,14.75c8.556,8.804,18.823,15.948,28.528,23.76c9.696,7.663,20.242,14.277,31.344,19.79
				c5.554,2.752,11.254,5.218,17.064,7.397c5.819,2.156,11.759,3.984,17.774,5.514c12.025,3.085,24.422,4.764,36.831,4.86
				c12.406,0.125,24.826-1.531,36.699-4.977c5.948-1.732,11.721-3.903,16.929-7.128c5.214-3.19,9.915-7.201,13.871-11.837
				c7.929-9.264,12.714-21.151,13.173-33.282c-0.008-1.516,0.022-3.033-0.013-4.546l-0.412-4.528
				c-0.382-2.927-1.297-5.766-2.598-8.446c-2.617-5.371-6.638-10.043-11.067-14.217c-8.991-8.308-19.576-14.873-30.287-21.097
				c-5.357-3.138-10.803-6.146-16.174-9.398c-5.297-3.235-10.667-6.317-16.107-9.288c-10.885-5.925-22.165-11.118-33.773-15.467
				c-11.613-4.306-23.639-7.681-35.957-9.225c-6.153-0.78-12.397-0.929-18.57-0.291C145.205,39.99,139.104,41.545,133.527,44.283z
				 M133.392,44.015c5.596-2.804,11.734-4.383,17.926-5.127c6.204-0.77,12.488-0.663,18.707-0.096
				c6.224,0.577,12.396,1.66,18.487,3.066c6.093,1.406,12.109,3.133,18.039,5.125c11.88,3.943,23.35,9.05,34.455,14.805
				c5.561,2.864,11.009,5.956,16.359,9.18c5.302,3.162,10.779,6.142,16.187,9.261c5.411,3.116,10.771,6.365,15.974,9.887
				c5.198,3.524,10.252,7.33,14.855,11.705c4.567,4.381,8.793,9.328,11.604,15.208c1.394,2.928,2.391,6.099,2.789,9.355l0.396,4.776
				c0.026,1.596-0.017,3.195-0.025,4.791c-0.306,6.381-1.708,12.705-4.149,18.592c-2.433,5.89-5.854,11.353-10.042,16.127
				c-4.182,4.781-9.143,8.867-14.625,12.041c-5.468,3.225-11.503,5.338-17.532,6.95c-12.105,3.313-24.67,4.59-37.156,4.451
				c-6.249-0.089-12.486-0.593-18.671-1.442c-6.183-0.861-12.334-1.974-18.398-3.465c-6.068-1.473-12.053-3.286-17.944-5.362
				c-5.899-2.056-11.7-4.406-17.368-7.052c-11.325-5.306-22.158-11.73-32.15-19.322c-4.931-3.82-9.906-7.507-14.823-11.388
				c-4.904-3.876-9.736-7.925-14.084-12.523c-1.093-1.141-2.109-2.363-3.165-3.54c-1.005-1.227-1.953-2.505-2.931-3.755
				c-0.87-1.335-1.762-2.655-2.594-4.011c-0.736-1.417-1.56-2.786-2.216-4.241c-2.699-5.795-4.108-12.165-4.096-18.553l0.132-2.395
				c0.077-0.793,0.207-1.577,0.309-2.365l0.163-1.18c0.071-0.391,0.168-0.777,0.25-1.165l0.523-2.323
				c0.867-3.055,2.005-6.022,3.455-8.831c2.943-5.599,6.932-10.545,11.406-14.908c4.459-4.391,9.385-8.251,14.354-11.996
				C122.746,50.531,127.802,46.821,133.392,44.015z"/>
		</g>
		<path style="clip-path:url(#SVGID_00000096742759131374051710000004022691353883271050_);fill:#4EB49C;" d="M261.16,202.354
			c-28.071-4.222-60.328,32.295-71.258,55.005c-4.961,10.308-6.151,23.159-0.138,32.892c14.061,22.757,50.108,24.107,71.903,14.108
			c23.4-10.736,38.273-34.494,34.882-60.42C294.553,228.683,279.874,205.169,261.16,202.354z"/>
		<path style="clip-path:url(#SVGID_00000096742759131374051710000004022691353883271050_);fill:#C48E6A;" d="M72.983,445.525
			c-13.472,24.987,9.977,67.697,27.649,85.667c8.021,8.156,19.712,13.624,30.905,11.259c26.173-5.531,39.64-38.995,37.605-62.888
			c-2.184-25.652-19.509-47.687-45.053-53.268C109.059,423.011,81.965,428.867,72.983,445.525z"/>
		<g style="clip-path:url(#SVGID_00000096742759131374051710000004022691353883271050_);">
			<path style="fill:#02546A;" d="M323.802,215.864c-2.151,1.516-5.748,5.597-3.169,8.127c2.131,2.09,5.768,0.112,7.303-1.772
				c1.199-1.471,2.337-4.367,0.617-5.868C327.603,215.522,325.282,215.472,323.802,215.864z"/>
			<path style="fill:#02546A;" d="M334.493,204.38c-5.756,3.946,1.381,8.855,3.568,4.052c0.702-1.541,0.956-3.068-0.604-4.008
				c-1.03-0.62-2.506-0.659-3.359,0.153"/>
			<path style="fill:#02546A;" d="M342.215,217.448c-5.9,5.55,4.163,10.879,5.547,4.367
				C348.539,218.16,345.263,217.061,342.215,217.448z"/>
			<path style="fill:#02546A;" d="M352.51,207.746c0.01,2.313,0.614,4.593,3.322,4.736c0.791-1.41,1.487-3.763,0.203-5.142
				c-0.812-0.872-3.164-1.372-3.524,0.01"/>
			<path style="fill:#02546A;" d="M323.01,199.629c-3.066,0.815-4.755,6.381-0.242,4.81
				C325.633,203.441,326.832,199.49,323.01,199.629"/>
			<path style="fill:#02546A;" d="M334.25,229.909c-2.228,0.033-3.378,1.324-3.662,3.597c-0.223,1.784,0.19,2.558,2.032,2.48
				C335.397,235.867,337.521,229.477,334.25,229.909z"/>
			<path style="fill:#02546A;" d="M349.824,195.47c-0.669,0.773-2.632,2.62-1.497,3.678c0.825,0.769,1.806-0.016,2.408-0.541
				c0.634-0.553,1.861-1.843,1.379-2.83c-0.321-0.657-1.75-0.891-2.164-0.18"/>
			<path style="fill:#02546A;" d="M333.997,185.341c-1.255,1.127-2.812,4.309-0.923,5.582c1.493,1.006,2.586-0.4,3.001-1.714
				C336.635,187.434,335.991,185.353,333.997,185.341z"/>
			<path style="fill:#02546A;" d="M347.165,181.163c-0.801,1.002-2.063,3.365-1.043,4.571c0.774,0.916,2.323,0.816,3.077-0.102
				C350.315,184.275,349.426,181.041,347.165,181.163z"/>
		</g>
		<g style="clip-path:url(#SVGID_00000096742759131374051710000004022691353883271050_);">
			<path style="fill:#FFA188;" d="M209.566,446.561c1.083,3.443,4.914,9.847,9.297,7.533c3.621-1.912,2.554-7.49,0.733-10.282
				c-1.422-2.181-4.73-4.876-7.409-3.255C210.707,441.451,209.672,444.463,209.566,446.561z"/>
			<path style="fill:#FFA188;" d="M199.024,427.798c2.753,9.168,12.147,1.892,6.784-2.97c-1.721-1.56-3.61-2.529-5.489-0.883
				c-1.24,1.087-1.907,2.999-1.202,4.453"/>
			<path style="fill:#FFA188;" d="M219.322,423.163c4.789,10.025,15.952-0.898,8.021-5.426
				C222.893,415.196,220.089,419.019,219.322,423.163z"/>
			<path style="fill:#FFA188;" d="M210.943,405.661c3.027,0.953,6.258,1.114,7.575-2.364c-1.512-1.622-4.296-3.513-6.634-2.411
				c-1.478,0.697-3.113,3.561-1.458,4.609"/>
			<path style="fill:#FFA188;" d="M188.022,440.819c-0.214,4.347,6.353,8.877,6.184,2.324
				C194.099,438.983,189.436,435.767,188.022,440.819"/>
			<path style="fill:#FFA188;" d="M232.279,438.771c-0.887,2.924,0.32,4.966,3.172,6.286c2.237,1.035,3.421,0.82,4.088-1.62
				C240.544,439.76,233.081,434.317,232.279,438.771z"/>
			<path style="fill:#FFA188;" d="M193.781,404.047c0.731,1.196,2.325,4.532,4.181,3.491c1.349-0.757,0.733-2.366,0.298-3.372
				c-0.458-1.059-1.632-3.201-3.122-2.983c-0.993,0.145-1.895,1.915-1.139,2.752"/>
			<path style="fill:#FFA188;" d="M173.94,420.499c0.948,2.111,4.456,5.473,6.908,3.536c1.938-1.531,0.557-3.546-0.987-4.637
				C177.775,417.925,174.787,417.898,173.94,420.499z"/>
			<path style="fill:#FFA188;" d="M173.977,401.549c0.974,1.465,3.535,4.1,5.537,3.272c1.521-0.629,2.035-2.695,1.151-4.064
				C179.357,398.732,174.761,398.544,173.977,401.549z"/>
		</g>
		<g style="clip-path:url(#SVGID_00000096742759131374051710000004022691353883271050_);">
			<path style="fill:#02546A;" d="M7.955,34.531c-3.431-1.119-10.869-1.724-11.533,3.188c-0.548,4.058,4.611,6.431,7.941,6.573
				c2.601,0.11,6.717-1.015,6.956-4.138C11.45,38.429,9.601,35.836,7.955,34.531z"/>
			<path style="fill:#02546A;" d="M29.35,36.857c-9.06-3.088-8.599,8.785-1.526,7.247c2.27-0.494,4.157-1.468,3.909-3.953
				c-0.164-1.641-1.332-3.295-2.926-3.567"/>
			<path style="fill:#02546A;" d="M21.326,56.068c-10.942-1.93-8.54,13.504-0.246,9.681C25.733,63.604,24.252,59.101,21.326,56.068z
				"/>
			<path style="fill:#02546A;" d="M40.438,59.422c-2.535,1.909-4.544,4.445-2.479,7.538c2.199-0.287,5.356-1.454,5.818-3.997
				c0.292-1.608-1.089-4.603-2.904-3.865"/>
			<path style="fill:#02546A;" d="M25.148,20.336c-3.413-2.7-10.916,0.011-5.485,3.682C23.111,26.348,28.438,24.423,25.148,20.336"
				/>
			<path style="fill:#02546A;" d="M1.094,57.542c-1.864-2.422-4.227-2.626-6.959-1.072c-2.143,1.219-2.656,2.308-1.058,4.268
				C-4.515,63.692,4.252,60.782,1.094,57.542z"/>
			<path style="fill:#02546A;" d="M51.725,46.394c-1.399-0.1-5.04-0.742-5.271,1.374c-0.168,1.537,1.499,1.972,2.571,2.203
				c1.128,0.243,3.553,0.533,4.242-0.807c0.459-0.892-0.457-2.655-1.578-2.526"/>
			<path style="fill:#02546A;" d="M49.869,20.687c-2.269-0.455-7.043,0.445-6.892,3.567c0.119,2.467,2.562,2.514,4.347,1.891
				C49.735,25.303,51.493,22.888,49.869,20.687z"/>
			<path style="fill:#02546A;" d="M65.268,31.73c-1.759-0.059-5.391,0.494-5.88,2.605c-0.372,1.603,1.01,3.222,2.638,3.299
				C64.434,37.746,67.258,34.115,65.268,31.73z"/>
		</g>
		<g style="clip-path:url(#SVGID_00000096742759131374051710000004022691353883271050_);">
			<path style="fill:#FFA188;" d="M606.37,214.935c-1.061-2.408-4.349-6.742-7.339-4.714c-2.471,1.676-1.251,5.632,0.291,7.509
				c1.205,1.467,3.818,3.155,5.63,1.766C605.953,218.729,606.462,216.464,606.37,214.935z"/>
			<path style="fill:#FFA188;" d="M615.511,227.688c-2.729-6.423-8.954-0.399-4.678,2.695c1.372,0.993,2.819,1.544,4.048,0.201
				c0.812-0.887,1.142-2.326,0.515-3.323"/>
			<path style="fill:#FFA188;" d="M601.174,232.67c-4.273-6.881-11.487,1.928-5.378,4.574
				C599.224,238.729,600.95,235.735,601.174,232.67z"/>
			<path style="fill:#FFA188;" d="M608.646,244.682c-2.27-0.448-4.624-0.307-5.3,2.319c1.226,1.055,3.394,2.202,5,1.216
				c1.015-0.623,1.971-2.83,0.687-3.457"/>
			<path style="fill:#FFA188;" d="M622.441,217.372c-0.193-3.167-5.314-5.924-4.667-1.189
				C618.185,219.188,621.82,221.145,622.441,217.372"/>
			<path style="fill:#FFA188;" d="M590.536,222.398c0.409-2.19-0.629-3.573-2.802-4.301c-1.704-0.571-2.545-0.32-2.833,1.501
				C584.468,222.342,590.311,225.689,590.536,222.398z"/>
			<path style="fill:#FFA188;" d="M621.211,244.478c-0.626-0.808-2.048-3.098-3.309-2.195c-0.917,0.656-0.342,1.773,0.054,2.467
				c0.417,0.731,1.438,2.189,2.501,1.912c0.708-0.184,1.22-1.539,0.605-2.085"/>
			<path style="fill:#FFA188;" d="M634.271,230.969c-0.856-1.454-3.667-3.609-5.289-2.009c-1.282,1.264-0.12,2.614,1.087,3.281
				C631.699,233.141,633.866,232.922,634.271,230.969z"/>
			<path style="fill:#FFA188;" d="M635.761,244.703c-0.823-0.984-2.89-2.688-4.274-1.927c-1.051,0.577-1.259,2.116-0.509,3.037
				C632.088,247.175,635.434,246.943,635.761,244.703z"/>
		</g>
		<g style="clip-path:url(#SVGID_00000096742759131374051710000004022691353883271050_);">
			<path style="fill:#FBB158;" d="M106.407,199.478c-9.927,8.015-13.252,15.795-3.52,24.723c5.036,4.619,9.678,10.966,17.352,7.424
				c5-2.308,14.103-10.526,15.702-15.697c2.384-7.71-6.053-10.899-11.199-13.939C120.679,199.59,110.454,192.855,106.407,199.478z"
				/>
			<path style="fill:#FBB158;" d="M83.028,236.971c3.214-5.204,3.48-9.252-2.342-11.741c-3.012-1.288-6.122-3.42-9.029-0.597
				c-1.894,1.839-4.703,7.005-4.604,9.597c0.149,3.866,4.472,3.966,7.283,4.522C76.555,239.191,82.251,240.61,83.028,236.971z"/>
			<path style="fill:#FBB158;" d="M124.96,267.522c3.481-5.635,3.768-10.018-2.536-12.714c-3.262-1.395-6.629-3.703-9.776-0.646
				c-2.051,1.992-5.093,7.585-4.985,10.392c0.161,4.186,4.842,4.294,7.886,4.896C117.951,269.926,124.119,271.463,124.96,267.522z"
				/>
		</g>
		<g style="clip-path:url(#SVGID_00000096742759131374051710000004022691353883271050_);">
			<path style="fill:#FFA188;" d="M638.872,378.367c-10.937-6.571-19.386-7.021-24.428,5.185
				c-2.609,6.316-6.976,12.855-1.013,18.846c3.885,3.903,14.729,9.631,20.135,9.356c8.059-0.409,8.157-9.428,9.245-15.305
				C643.668,391.81,646.482,379.894,638.872,378.367z"/>
			<path style="fill:#FFA188;" d="M595.631,369.286c5.992,1.231,9.885,0.091,10.223-6.232c0.175-3.271,1.109-6.924-2.54-8.684
				c-2.378-1.147-8.194-2.012-10.595-1.028c-3.58,1.467-2.189,5.562-1.746,8.393C591.323,363.97,591.946,369.806,595.631,369.286z"
				/>
			<path style="fill:#FFA188;" d="M581.338,419.16c6.488,1.333,10.703,0.099,11.069-6.748c0.189-3.542,1.201-7.497-2.751-9.404
				c-2.575-1.242-8.872-2.178-11.472-1.113c-3.876,1.589-2.37,6.023-1.89,9.088C576.673,413.403,577.348,419.723,581.338,419.16z"/>
		</g>
		<g style="clip-path:url(#SVGID_00000096742759131374051710000004022691353883271050_);">
			<path style="fill:#02546A;" d="M120.152,327.682c-4.723-14.546,5.174-28.025-0.891-41.915
				c-2.245-5.141-6.742-9.847-11.051-13.689c-6.327-5.641-10.742-9.77-15.359-16.964c0.698,12.567-7.547,20.885-2.95,33.807
				c1.956,5.497,3.335,10.807,4.402,16.575c1.289,6.972,5.251,9.429,10.788,13.126C109.714,321.708,114.7,325.382,120.152,327.682z"
				/>
			<path style="fill:#02546A;" d="M130.605,320.747c-11.933-13.832,12.242-30.863,15.702-42.708
				c3.015-10.323-1.442-19.271-1.458-29.705c-0.013-7.998,2.509-13.373,7.719-19.229c2.506-2.816,6.304-5.47,7.002-8.368
				c-1.794,17.881,17.071,32.83,8.561,51.114c-4.14,8.895-7.725,14.069-7.384,24.033c0.329,9.633-2.294,13.142-10.787,17.413
				C143.852,316.37,137.366,320.03,130.605,320.747z"/>
			<path style="fill:#02546A;" d="M123.767,344.516c-0.289-11.101,18.098-8.61,24.603-9.391c3.482-0.418,7.84-1.265,11.023-2.845
				c3.211-1.593,4.514-4.262,6.881-6.668c7.758-7.886,18.689-6.188,28.568-7.724c-7.376,11.555-11.807,24.039-24.769,30.79
				c-11.02,5.74-23.959,5.199-35.231,0.916C131.385,348.281,126.592,346.786,123.767,344.516z"/>
			<path style="fill:none;stroke:#02546A;stroke-width:2;stroke-linecap:round;stroke-miterlimit:10;" d="M133.718,312.43
				c-2.515,2.43-2.767,8.468-4.395,11.694c-2.325,4.606-6.32,6.416-10.057,9.615c-10.413,8.913-14.833,22.566-6.072,34.215
				c7.69,10.225,20.617,15.339,32.968,16.919c12.82,1.64,25.803-0.138,38.605-1.914c10.442-1.448,20.024-4.076,30.389-5.14
				c17.914-1.839,48.755-6.415,58.495,13.908"/>
		</g>
		<g style="clip-path:url(#SVGID_00000096742759131374051710000004022691353883271050_);">
			<path style="fill:#4EB49C;" d="M620.932,188.683c-16.509-5.514-22.153-23.689-38.969-27.532
				c-6.224-1.422-13.574-0.488-20.003,0.858c-9.443,1.977-16.208,3.225-25.916,2.585c11.976,7.86,14.013,21.033,28.949,25.564
				c6.355,1.928,12.148,4.256,18.149,7.181c7.253,3.536,12.182,1.571,19.31-0.997C608.404,194.198,615.139,192.118,620.932,188.683z
				"/>
			<path style="fill:#4EB49C;" d="M621.653,174.425c-20.731,1.568-19.971-32.079-28.472-43.257
				c-7.409-9.742-18.614-11.714-28.176-18.755c-7.33-5.398-10.544-11.341-12.38-20.07c-0.883-4.198-0.743-9.47-2.924-12.068
				c15.154,13.736,41.596,6.578,52.576,26.733c5.342,9.805,7.654,16.586,17.004,23.013c9.04,6.214,10.477,10.988,8.643,21.65
				C626.606,159.339,625.57,167.752,621.653,174.425z"/>
			<path style="fill:#4EB49C;" d="M633.765,190.922c-10.356-7.243,4.359-22.389,8.043-28.87c1.973-3.47,4.144-8.032,4.851-12.014
				c0.714-4.017-0.848-7.014-1.449-10.808c-1.972-12.434,6.975-21.291,12.25-31.373c5.588,14.566,14.019,27.065,11.432,43.495
				c-2.199,13.969-11.445,25.446-22.989,32.868C642.363,186.495,637.753,189.871,633.765,190.922z"/>
		</g>
		<g style="clip-path:url(#SVGID_00000096742759131374051710000004022691353883271050_);">
			<path style="fill:#FBB158;" d="M631.457,506.107c-5.582-16.486,5.489-31.966-1.61-47.686c-2.628-5.819-7.813-11.111-12.771-15.42
				c-7.281-6.329-12.364-10.966-17.72-19.087c0.974,14.292-8.292,23.875-2.876,38.514c2.304,6.228,3.949,12.251,5.245,18.8
				c1.566,7.916,6.109,10.656,12.463,14.784C619.493,499.457,625.22,503.567,631.457,506.107z"/>
			<path style="fill:#FBB158;" d="M643.254,498.066c-13.776-15.571,13.493-35.296,17.262-48.825
				c3.285-11.79-1.914-21.909-2.081-33.783c-0.128-9.102,2.665-15.254,8.511-21.992c2.812-3.24,7.097-6.314,7.849-9.622
				c-1.787,20.374,19.893,37.118,10.469,58.046c-4.585,10.181-8.59,16.121-8.061,27.454c0.511,10.957-2.424,14.988-12.028,19.97
				C658.267,492.897,650.937,497.155,643.254,498.066z"/>
			<path style="fill:#FBB158;" d="M637.428,517.685c-0.486-12.629,20.473-10.056,27.864-11.036
				c3.957-0.525,8.904-1.551,12.504-3.394c3.632-1.859,5.077-4.914,7.736-7.686c8.716-9.084,21.18-7.307,32.4-9.196
				c-8.229,13.254-13.094,27.524-27.749,35.391c-12.459,6.688-27.191,6.257-40.08,1.543
				C646.15,521.862,640.674,520.228,637.428,517.685z"/>
		</g>
		<g style="clip-path:url(#SVGID_00000096742759131374051710000004022691353883271050_);">
			<g>
				<path style="fill:#FFA188;" d="M320.023,280.291c-6.581,2.556-12.73,6.181-18.228,10.583c-5.492,4.404-10.427,9.52-14.484,15.22
					c-2.009,2.851-3.69,5.925-4.733,9.187c-0.988,3.272-1.261,6.725-0.888,10.134c0.419,3.407,1.354,6.76,2.578,10.018
					c1.249,3.253,2.768,6.418,4.361,9.557c3.235,6.268,6.128,12.762,10.536,18.186c4.372,5.434,10.594,9.23,17.201,11.51
					c6.629,2.32,13.767,3.133,20.758,2.564c3.503-0.265,6.956-0.957,10.232-2.184c3.282-1.206,6.389-2.854,9.334-4.748
					c5.9-3.803,11.12-8.559,16.466-13.182c5.291-4.727,11.09-8.866,15.957-13.824c2.448-2.476,4.517-5.224,6.11-8.267
					c1.589-3.035,2.694-6.322,3.25-9.696c1.123-6.736,0.059-13.869-3.383-19.782l-1.387-2.147c-0.507-0.683-1.057-1.337-1.582-2.008
					c-1.083-1.305-2.333-2.459-3.68-3.519c-2.701-2.116-5.754-3.825-8.811-5.593c-3.094-1.757-6.076-3.629-9.164-5.3
					c-3.086-1.678-6.205-3.292-9.422-4.692c-6.409-2.843-13.257-4.74-20.287-5.192C333.735,276.658,326.616,277.785,320.023,280.291
					z M319.951,280.104c6.606-2.553,13.728-3.757,20.831-3.543c7.109,0.21,14.154,1.902,20.764,4.531
					c3.314,1.304,6.555,2.789,9.704,4.439c3.167,1.622,6.217,3.443,9.308,5.106c3.106,1.676,6.253,3.423,9.131,5.664
					c1.433,1.117,2.8,2.37,3.98,3.779c0.568,0.716,1.158,1.416,1.705,2.149l1.498,2.3c3.699,6.338,4.942,13.996,3.656,21.168
					c-0.627,3.59-1.835,7.072-3.553,10.277c-1.71,3.204-3.975,6.136-6.521,8.658c-5.093,5.107-10.944,9.11-16.268,13.711
					c-5.392,4.545-10.828,9.173-16.914,12.903c-3.038,1.86-6.247,3.473-9.628,4.631c-3.377,1.164-6.923,1.822-10.465,2.074
					c-7.096,0.508-14.278-0.385-21.037-2.609c-3.375-1.128-6.629-2.638-9.657-4.531c-3.031-1.873-5.841-4.184-8.172-6.918
					c-2.346-2.717-4.294-5.735-6.076-8.811c-1.772-3.091-3.424-6.204-5.083-9.335c-1.63-3.148-3.203-6.351-4.517-9.687
					c-1.292-3.34-2.314-6.836-2.697-10.458c-0.379-3.616-0.028-7.348,1.128-10.814c1.173-3.462,3.075-6.585,5.227-9.432
					c4.35-5.667,9.5-10.647,15.179-14.895C307.157,286.225,313.341,282.648,319.951,280.104z"/>
			</g>
			<path style="fill:#FBB158;" d="M333.917,296.805h0.007H333.917 M340.818,297.624c12.268,0,24.519,5.915,32.669,14.982
				c2.082,2.316,4.004,5.067,4.082,8.18c0.084,3.37-2.014,6.404-4.366,8.819c-4.664,4.79-10.581,8.158-16.592,11.086
				c-4.822,2.349-9.812,4.472-15.083,5.469c-5.271,0.997-10.88,0.807-15.794-1.344c-5.344-2.339-9.462-6.774-13.113-11.325
				c-5.857-7.302-9.276-16.471-0.234-22.953c3.6-2.581,7.897-3.989,11.753-6.171C329.864,301.127,334.01,297.624,340.818,297.624
				 M340.799,286.087c-1.993,0.186-3.971,0.515-5.908,0.974c-9.127,2.163-16.337,7.901-24.507,12.175
				c-5.406,2.828-10.904,5.949-13.546,11.753c-3.681,8.084-0.684,18.564,3.827,25.71c7.909,12.53,21.301,21.537,35.679,21.537
				c3.977,0,8.027-0.688,12.06-2.182c17.006-6.298,45.343-17.862,39.637-41.323c-2.417-9.94-18.706-20.508-27.386-25.062
				C354.573,286.48,347.599,285.453,340.799,286.087z"/>
			<path style="fill:#4EB49C;" d="M336.626,308.471c-3.72-0.027-8.903,2.673-11.546,5.211c-2.582,2.48-3.013,5.898-1.717,9.169
				c2.987,7.537,10.319,10.079,17.847,10.836c6.759,0.679,21.929-0.785,20.373-11.049c-0.779-5.136-6.733-5.88-10.6-7.608
				c-2.909-1.3-5.513-3.142-8.417-4.52C340.45,309.505,338.86,309.057,336.626,308.471z"/>
		</g>
		<g style="clip-path:url(#SVGID_00000096742759131374051710000004022691353883271050_);">
			<g>
				<path style="fill:#FFA188;" d="M681.34,63.636c5.721-4.136,10.754-9.198,14.96-14.848c4.2-5.649,7.681-11.847,10.166-18.388
					c1.223-3.267,2.072-6.665,2.257-10.085c0.129-3.416-0.48-6.825-1.703-10.029c-1.267-3.191-3.02-6.198-5.027-9.041
					c-2.031-2.832-4.301-5.509-6.635-8.144c-4.715-5.247-9.155-10.798-14.792-14.932c-5.604-4.152-12.583-6.252-19.552-6.788
					c-7-0.568-14.112,0.45-20.732,2.768c-3.323,1.142-6.488,2.684-9.347,4.7c-2.87,1.997-5.46,4.377-7.831,6.953
					c-4.747,5.171-8.595,11.093-12.598,16.917c-3.924,5.911-8.488,11.381-11.944,17.409c-1.742,3.015-3.05,6.197-3.821,9.544
					c-0.771,3.338-1.008,6.798-0.693,10.203c0.617,6.801,3.449,13.433,8.274,18.284l1.885,1.727
					c0.664,0.533,1.361,1.026,2.039,1.543c1.378,0.988,2.879,1.79,4.451,2.474c3.148,1.365,6.534,2.246,9.938,3.184
					c3.438,0.918,6.796,1.976,10.207,2.811c3.41,0.844,6.836,1.616,10.303,2.158c6.92,1.13,14.024,1.234,20.94-0.106
					C668.992,70.618,675.595,67.727,681.34,63.636z M681.457,63.798c-5.746,4.14-12.332,7.106-19.258,8.694
					c-6.931,1.595-14.175,1.739-21.235,0.866c-3.536-0.424-7.048-1.041-10.511-1.842c-3.475-0.769-6.886-1.759-10.297-2.587
					c-3.429-0.836-6.916-1.73-10.266-3.171c-1.669-0.719-3.308-1.585-4.806-2.65c-0.731-0.549-1.479-1.077-2.193-1.648l-2.03-1.847
					c-5.181-5.197-8.32-12.292-8.889-19.556c-0.301-3.632-0.013-7.306,0.839-10.842c0.845-3.532,2.295-6.941,4.12-10.025
					c3.636-6.229,8.285-11.581,12.273-17.379c4.068-5.76,8.157-11.612,13.103-16.76c2.469-2.568,5.166-4.94,8.144-6.915
					c2.973-1.98,6.237-3.513,9.601-4.653c6.737-2.285,13.911-3.237,21.013-2.794c3.551,0.238,7.081,0.876,10.489,1.942
					c3.406,1.046,6.709,2.572,9.656,4.627c2.957,2.036,5.604,4.463,8.106,6.988c2.496,2.542,4.882,5.137,7.278,7.747
					c2.373,2.634,4.705,5.335,6.819,8.23c2.094,2.905,3.967,6.029,5.253,9.437c1.28,3.403,1.885,7.102,1.643,10.748
					c-0.26,3.646-1.311,7.148-2.673,10.448c-2.776,6.583-6.5,12.703-10.92,18.249C692.288,54.641,687.21,59.666,681.457,63.798z"/>
			</g>
			<path style="fill:#FBB158;" d="M663.722,51.171l-0.007,0.002L663.722,51.171 M656.839,52.123
				c-11.869,3.102-25.218,0.476-35.395-6.236c-2.599-1.714-5.155-3.89-6.018-6.882c-0.934-3.239,0.33-6.705,1.995-9.636
				c3.302-5.813,8.175-10.568,13.25-14.92c4.072-3.492,8.363-6.808,13.21-9.105c4.847-2.297,10.323-3.531,15.621-2.693
				c5.762,0.912,10.868,4.162,15.55,7.642c7.512,5.584,13.139,13.591,6.029,22.149c-2.831,3.408-6.632,5.856-9.811,8.942
				C666.551,45.965,663.425,50.402,656.839,52.123 M659.774,63.28c1.881-0.684,3.712-1.502,5.47-2.436
				c8.284-4.401,13.809-11.775,20.633-17.975c4.516-4.103,9.045-8.512,10.135-14.796c1.517-8.752-4.032-18.134-10.203-23.908
				c-10.82-10.123-26.054-15.452-39.965-11.817c-3.848,1.005-7.592,2.695-11.116,5.16C619.866,7.9,595.373,26.253,606.825,47.509
				c4.852,9.006,23.283,15.112,32.833,17.324C646.348,66.383,653.355,65.614,659.774,63.28z"/>
			<path style="fill:#4EB49C;" d="M658.152,40.569c3.606-0.914,7.938-4.837,9.854-7.961c1.872-3.052,1.425-6.468-0.657-9.305
				c-4.796-6.537-12.532-7.143-20.007-5.972c-6.712,1.052-21.018,6.304-16.917,15.841c2.052,4.772,8,3.987,12.179,4.681
				c3.143,0.522,6.128,1.646,9.286,2.245C654.191,40.535,655.843,40.567,658.152,40.569z"/>
		</g>
		<path style="clip-path:url(#SVGID_00000096742759131374051710000004022691353883271050_);fill:#FBB158;" d="M412.651,208.596
			c-6.203,4.162-12.05,8.842-17.444,13.992c-5.808,5.544-11.255,11.878-13.579,19.564c-5.587,18.476,11.078,31.346,28.076,30.848
			c14.871-0.436,28.77-4.383,43.582-4.999c18.721-0.778,35.879,1.443,54.377,3.009c36.901,3.125,80.178-33.82,44.729-67.206
			c-19.011-17.904-50.367-19.006-74.916-17.451C454.425,187.813,431.84,195.721,412.651,208.596z"/>
		<path style="clip-path:url(#SVGID_00000096742759131374051710000004022691353883271050_);fill:#02546A;" d="M514.266,198.235
			c3.544-12.257,1.811-20.538-11.281-22.279c-6.774-0.901-14.215-3.442-18.475,3.858c-2.775,4.756-5.528,16.708-3.875,21.861
			c2.464,7.685,11.206,5.464,17.165,5.007C502.505,206.32,514.744,205.982,514.266,198.235z"/>
		<path style="clip-path:url(#SVGID_00000096742759131374051710000004022691353883271050_);fill:#02546A;" d="M505.052,151.685
			c0.376,6.613,2.652,10.37,9.363,8.967c3.472-0.726,7.554-0.763,8.383-5.072c0.54-2.807-0.172-9.134-1.869-11.373
			c-2.531-3.339-6.429-0.745-9.268,0.505C509.419,145.699,503.484,147.973,505.052,151.685z"/>
		<path style="clip-path:url(#SVGID_00000096742759131374051710000004022691353883271050_);fill:#02546A;" d="M460.074,153.098
			c0.376,6.613,2.652,10.37,9.363,8.967c3.472-0.726,7.554-0.763,8.383-5.072c0.54-2.807-0.172-9.134-1.869-11.373
			c-2.53-3.339-6.429-0.745-9.268,0.505C464.44,147.112,458.505,149.387,460.074,153.098z"/>
		<g style="clip-path:url(#SVGID_00000096742759131374051710000004022691353883271050_);">
			<path style="fill:none;stroke:#C48E6A;stroke-width:3;stroke-miterlimit:10;" d="M422.684,299.732
				c4.554-1.615,9.16-3.229,13.999-1.539c4.396,1.535,7.57,3.605,12.56,3.734c4.617,0.119,8.858-0.129,13.36-1.011
				c3.571-0.7,6.984-2.16,10.663-2.394c4.531-0.288,9.229,0.228,13.311,2.303c4.58,2.329,8.569,3.557,13.867,2.973
				c5.71-0.629,11.257-3.501,16.628-5.369c3.046-1.059,5.862-1.575,9.135-1.282c4.56,0.408,8.692,2.757,13.175,3.38"/>
			<path style="fill:none;stroke:#C48E6A;stroke-width:3;stroke-miterlimit:10;" d="M422.087,307.698
				c5.136-1.084,11.418-2.47,16.634-0.483c2.254,0.859,4.063,2.126,6.498,2.529c5.123,0.848,9.482,0.214,14.483-0.872
				c7.964-1.73,14.984-3.207,23.19-1.074c3.416,0.888,6.527,2.288,9.699,3.684c3.939,1.733,8.745,1.701,12.978,1.359
				c5.962-0.481,10.83-2.705,16.27-4.889c3.673-1.475,7.811-2.475,11.769-1.648"/>
			<path style="fill:none;stroke:#C48E6A;stroke-width:3;stroke-miterlimit:10;" d="M421.49,316.062
				c3.649-0.938,6.877-2.022,10.772-1.818c2.401,0.126,4.941,1.333,7.143,2.233c2.982,1.219,5.442,2.862,8.756,3.129
				c5.145,0.415,10.064-0.331,14.947-1.772c7.99-2.359,15.662-1.867,23.302,1.414c8.81,3.784,16.781,2.407,25.738-0.273
				c9.686-2.899,20.484-7.113,30.222-2.116"/>
			<path style="fill:none;stroke:#C48E6A;stroke-width:3;stroke-miterlimit:10;" d="M420.295,325.023
				c3.358-0.832,6.158-2.442,9.785-1.884c3.705,0.57,6.781,2.78,10.214,4.079c4.676,1.769,9.238,2.238,14.229,2.189
				c4.811-0.047,8.93-1.542,13.557-2.267c10.495-1.646,21.346,3.285,31.869,3.259c3.529-0.009,7.008,0.115,10.51-0.38
				c3.691-0.522,7.108-1.772,10.741-2.527c3.673-0.763,7.116-1.418,10.861-1.472c1.613-0.023,3.898-0.591,5.33-0.001"/>
		</g>
		<g style="clip-path:url(#SVGID_00000096742759131374051710000004022691353883271050_);">
			<path style="fill:none;stroke:#C48E6A;stroke-width:3;stroke-miterlimit:10;" d="M70.193,301.378
				c1.615,4.554,3.229,9.16,1.539,13.999c-1.535,4.395-3.605,7.57-3.734,12.56c-0.119,4.617,0.129,8.858,1.011,13.36
				c0.7,3.571,2.16,6.984,2.394,10.663c0.288,4.531-0.228,9.229-2.303,13.311c-2.329,4.58-3.557,8.569-2.973,13.867
				c0.629,5.71,3.501,11.257,5.369,16.628c1.059,3.046,1.575,5.862,1.282,9.135c-0.408,4.56-2.757,8.692-3.38,13.175"/>
			<path style="fill:none;stroke:#C48E6A;stroke-width:3;stroke-miterlimit:10;" d="M62.227,300.78
				c1.084,5.136,2.47,11.418,0.483,16.634c-0.859,2.254-2.126,4.063-2.529,6.498c-0.848,5.123-0.214,9.482,0.872,14.483
				c1.73,7.964,3.207,14.985,1.074,23.19c-0.888,3.416-2.288,6.527-3.684,9.699c-1.734,3.939-1.701,8.745-1.359,12.978
				c0.481,5.962,2.705,10.83,4.889,16.27c1.475,3.673,2.475,7.811,1.648,11.769"/>
			<path style="fill:none;stroke:#C48E6A;stroke-width:3;stroke-miterlimit:10;" d="M53.863,300.183
				c0.938,3.649,2.022,6.877,1.817,10.772c-0.126,2.401-1.333,4.941-2.233,7.143c-1.219,2.982-2.862,5.442-3.129,8.756
				c-0.415,5.144,0.331,10.064,1.772,14.946c2.359,7.99,1.867,15.662-1.414,23.302c-3.784,8.81-2.407,16.781,0.274,25.738
				c2.899,9.686,7.113,20.484,2.116,30.222"/>
			<path style="fill:none;stroke:#C48E6A;stroke-width:3;stroke-miterlimit:10;" d="M44.901,298.988
				c0.832,3.358,2.442,6.158,1.884,9.785c-0.57,3.705-2.78,6.781-4.079,10.214c-1.769,4.676-2.238,9.238-2.189,14.229
				c0.047,4.811,1.542,8.93,2.267,13.557c1.646,10.495-3.285,21.346-3.259,31.869c0.009,3.529-0.115,7.008,0.38,10.51
				c0.522,3.691,1.772,7.108,2.527,10.741c0.763,3.673,1.418,7.116,1.472,10.861c0.023,1.613,0.591,3.898,0.001,5.33"/>
		</g>
		<path style="clip-path:url(#SVGID_00000096742759131374051710000004022691353883271050_);fill:#C48E6A;" d="M382.996,76.919
			c-6.353,6.653-11.56,14.701-15.271,22.686c-2.095,4.509-3.8,9.282-4.13,14.243c-1.573,23.601,28.396,27.713,45.846,26.189
			c9.069-0.792,18.885-2.466,27.4-5.727c13.841-5.301,23.363-19.45,27.935-33.201c3.544-10.656,2.349-24.084-6.642-31.558
			c-6.488-5.393-17.566-10.237-26.134-10.109c-13.266,0.198-28.03,1.461-39.326,9.174C389.219,70.975,385.981,73.793,382.996,76.919
			z"/>
		<path style="clip-path:url(#SVGID_00000096742759131374051710000004022691353883271050_);fill:#02546A;" d="M480.702,353.843
			c-14.299-3.669-29.125-2.594-43.07,7.478c-6.8,4.911-11.513,12.156-15.618,19.472c-9.397,16.744-23.031,41.346-19.716,61.088
			c1.472,8.768,6.305,16.565,11.258,23.948c16.388,24.424,37.345,48.678,69.486,46.247c16.239-1.228,31.544-8.005,45.794-15.889
			c18.869-10.44,40.357-25.775,42.857-49.035c2.921-27.173-25.677-51.965-44.644-67.292
			C513.914,369.244,497.68,358.199,480.702,353.843z"/>
		<g style="clip-path:url(#SVGID_00000096742759131374051710000004022691353883271050_);">
			<path style="fill:#FBB158;" d="M429.774,378.662c-5.085-1.262-10.319-2.001-15.557-1.847c-2.612,0.106-5.226,0.336-7.782,0.878
				c-0.644,0.108-1.281,0.25-1.912,0.42c-0.631,0.165-1.27,0.303-1.894,0.49c-1.239,0.411-2.493,0.771-3.694,1.281
				c-4.862,1.867-9.376,4.616-13.383,7.867c-3.952,3.333-7.116,7.504-9.856,11.908c-1.372,2.208-2.647,4.477-3.881,6.786
				l-3.717,6.934c-2.439,4.636-4.808,9.297-6.98,14.038c-2.139,4.753-4.108,9.576-5.671,14.515
				c-1.539,4.938-2.75,9.987-3.144,15.097l-0.149,1.915l0.002,1.913l0.008,1.915l0.191,1.897c0.167,2.545,0.8,5.027,1.57,7.468
				c1.585,4.883,4.092,9.474,6.823,13.916c5.564,8.861,11.517,17.549,18.48,25.374c6.943,7.8,15.023,14.761,24.425,19.314
				c9.349,4.64,20.025,6.295,30.317,5.003c10.352-1.164,20.285-4.667,29.739-9.005c4.725-2.202,9.35-4.635,13.898-7.212
				c4.544-2.576,9.012-5.271,13.275-8.247c8.493-5.927,16.413-12.904,21.86-21.563c2.7-4.317,4.735-9.027,5.811-13.969
				c1.029-4.96,1.146-10.041,0.12-15.007c-0.474-2.481-1.167-4.932-2.086-7.309c-0.905-2.381-1.958-4.718-3.196-6.968
				c-1.222-2.257-2.559-4.461-4.027-6.585c-1.452-2.133-2.985-4.221-4.615-6.238c-6.513-8.082-14.042-15.38-21.893-22.306
				c-3.942-3.449-7.938-6.861-12.031-10.125c-4.103-3.257-8.326-6.365-12.695-9.26C449.409,386.167,439.925,381.364,429.774,378.662
				z M429.849,378.372c5.104,1.306,10.048,3.179,14.831,5.377c4.8,2.173,9.398,4.763,13.898,7.502
				c9.004,5.494,17.373,11.959,25.555,18.581c8.166,6.657,16.061,13.78,22.857,21.988c3.411,4.084,6.515,8.466,9.103,13.178
				c1.313,2.344,2.447,4.8,3.427,7.321c0.994,2.516,1.76,5.136,2.294,7.81c1.139,5.337,0.983,10.973-0.133,16.295
				c-1.164,5.341-3.366,10.418-6.295,14.966c-2.919,4.562-6.493,8.634-10.389,12.296c-3.902,3.664-8.13,6.932-12.517,9.924
				c-4.392,2.99-8.943,5.714-13.587,8.235c-4.638,2.525-9.363,4.911-14.201,7.066c-9.666,4.29-19.947,7.526-30.554,8.471
				c-2.641,0.282-5.316,0.301-7.972,0.247c-2.658-0.138-5.312-0.388-7.926-0.884c-5.225-0.984-10.301-2.701-15.05-5.053
				c-4.753-2.35-9.178-5.316-13.259-8.667c-4.087-3.348-7.895-7.025-11.425-10.943c-3.556-3.897-6.866-8.008-10.038-12.217
				c-3.169-4.215-6.211-8.507-9.128-12.911c-2.888-4.417-5.595-9.051-7.4-14.135c-0.878-2.537-1.622-5.173-1.877-7.873l-0.255-2.018
				l-0.065-2.025l-0.055-2.027l0.124-2.016c0.348-5.377,1.49-10.645,3.086-15.725c1.589-5.088,3.579-10.023,5.824-14.818
				c2.233-4.802,4.703-9.476,7.284-14.072c1.286-2.3,2.588-4.588,3.921-6.855c1.325-2.28,2.706-4.548,4.188-6.752
				c2.959-4.4,6.383-8.594,10.599-11.911c4.259-3.22,8.929-5.839,13.948-7.576c4.992-1.774,10.273-2.685,15.546-2.745
				c2.639-0.055,5.273,0.146,7.889,0.456C424.712,377.198,427.294,377.738,429.849,378.372z"/>
		</g>
		<path style="clip-path:url(#SVGID_00000096742759131374051710000004022691353883271050_);fill:#FFA188;" d="M702.982,233.167
			c-28.332,6.966-70.326,33.092-63.404,67.962c2.943,14.829,18.431,30.309,28.391,41.017c11.193,12.034,23.743,20.267,38.059,27.883
			c30.42,16.182,73.257,4.551,83.396-29.254c10.787-35.963-4.829-68.18-31.58-91.788
			C741.78,234.812,724.397,236.208,702.982,233.167z"/>
		<path style="clip-path:url(#SVGID_00000096742759131374051710000004022691353883271050_);fill:#4EB49C;" d="M270.095-13.184
			c-7.54,7.381-11.706,23.692-9.932,34.223c2.434,14.452,14.809,20.408,26.666,25.55c18.072,7.838,34.476,16.824,55.193,13.268
			c17.993-3.089,24.662-17.736,13.203-31.532c-6.599-7.945-15.912-10.526-23.312-18.023c-5.692-5.767-10.139-13.705-16.579-18.935
			C305.204-16.856,281.936-23.015,270.095-13.184z"/>
		<g style="clip-path:url(#SVGID_00000096742759131374051710000004022691353883271050_);">
			<path style="fill:none;stroke:#C48E6A;stroke-width:3;stroke-miterlimit:10;" d="M692.889,272.084
				c-1.615-4.554-3.229-9.16-1.539-13.999c1.535-4.395,3.605-7.57,3.734-12.56c0.12-4.617-0.129-8.858-1.011-13.36
				c-0.7-3.571-2.16-6.984-2.394-10.663c-0.288-4.531,0.228-9.229,2.303-13.311c2.329-4.58,3.557-8.569,2.973-13.867
				c-0.629-5.71-3.501-11.257-5.369-16.628c-1.059-3.046-1.575-5.862-1.282-9.135c0.408-4.561,2.757-8.691,3.38-13.175"/>
			<path style="fill:none;stroke:#C48E6A;stroke-width:3;stroke-miterlimit:10;" d="M700.854,272.682
				c-1.084-5.136-2.47-11.418-0.483-16.634c0.859-2.255,2.126-4.063,2.529-6.498c0.848-5.123,0.214-9.482-0.872-14.483
				c-1.73-7.964-3.206-14.984-1.074-23.19c0.888-3.416,2.288-6.528,3.684-9.699c1.733-3.939,1.701-8.745,1.359-12.978
				c-0.482-5.962-2.705-10.83-4.889-16.27c-1.475-3.673-2.474-7.811-1.648-11.769"/>
			<path style="fill:none;stroke:#C48E6A;stroke-width:3;stroke-miterlimit:10;" d="M709.218,273.279
				c-0.938-3.649-2.022-6.877-1.817-10.772c0.126-2.401,1.333-4.941,2.233-7.143c1.219-2.982,2.862-5.442,3.129-8.756
				c0.415-5.145-0.331-10.064-1.773-14.947c-2.359-7.99-1.867-15.662,1.414-23.302c3.784-8.81,2.407-16.781-0.273-25.738
				c-2.899-9.686-7.113-20.484-2.116-30.222"/>
			<path style="fill:none;stroke:#C48E6A;stroke-width:3;stroke-miterlimit:10;" d="M718.18,274.474
				c-0.832-3.358-2.442-6.158-1.884-9.785c0.57-3.705,2.78-6.781,4.079-10.214c1.769-4.676,2.238-9.238,2.189-14.229
				c-0.047-4.811-1.542-8.93-2.267-13.557c-1.646-10.495,3.285-21.346,3.259-31.869c-0.009-3.529,0.115-7.008-0.38-10.51
				c-0.522-3.691-1.772-7.107-2.527-10.741c-0.763-3.673-1.418-7.116-1.472-10.861c-0.023-1.613-0.591-3.898-0.001-5.33"/>
		</g>
	</g>
</g>
</svg>
